<svg width="79" height="70" viewBox="0 0 79 70" fill="none" xmlns="http://www.w3.org/2000/svg">
<path d="M28.9559 18.8031H36.0959V59.4831H30.1559L16.4759 38.1231C15.7159 36.9631 14.8759 35.6631 13.9559 34.2231C13.0759 32.7431 12.2359 31.3831 11.4359 30.1431C11.5559 31.4231 11.6559 32.7631 11.7359 34.1631C11.8559 35.5631 11.9159 36.9031 11.9159 38.1831L12.0959 59.4231H4.95586V18.6831H10.5359L24.6359 39.8031C25.4359 40.9631 26.2359 42.2031 27.0359 43.5231C27.8759 44.8031 28.6959 46.0431 29.4959 47.2431C29.4159 45.9631 29.3359 44.6831 29.2559 43.4031C29.1759 42.0831 29.1359 40.9631 29.1359 40.0431L28.9559 18.8031Z" fill="black"/>
<mask id="path-2-inside-1_366_72" fill="black">
<path d="M49.1745 61.2374L41.0306 59.7423L40.7246 18.8754L50.698 20.7063L49.8594 43.5504C49.833 44.3589 49.7885 45.2658 49.7259 46.271C49.7027 47.2834 49.6691 48.1313 49.625 48.8146C49.7936 48.5608 50.016 48.2356 50.2921 47.839C50.5683 47.4423 50.8481 47.026 51.1314 46.59C51.4542 46.1612 51.7769 45.7325 52.0996 45.3037C52.4223 44.8749 52.7182 44.4819 52.9871 44.1245L68.6176 23.447L77.4338 27.2615L49.1745 61.2374Z"/>
</mask>
<path d="M49.1745 61.2374L48.9939 62.221L49.5693 62.3266L49.9433 61.8769L49.1745 61.2374ZM41.0306 59.7423L40.0306 59.7498L40.0368 60.5766L40.85 60.7259L41.0306 59.7423ZM40.7246 18.8754L40.9052 17.8918L39.7156 17.6734L39.7246 18.8829L40.7246 18.8754ZM50.698 20.7063L51.6973 20.743L51.729 19.8789L50.8785 19.7227L50.698 20.7063ZM49.8594 43.5504L48.86 43.5137L48.8599 43.5177L49.8594 43.5504ZM49.7259 46.271L48.7279 46.2089L48.7266 46.2285L48.7262 46.2481L49.7259 46.271ZM49.625 48.8146L48.6271 48.7502L48.3859 52.4864L50.4579 49.368L49.625 48.8146ZM50.2921 47.839L51.1128 48.4104L51.1128 48.4104L50.2921 47.839ZM51.1314 46.59L50.3325 45.9886L50.3117 46.0162L50.293 46.045L51.1314 46.59ZM52.0996 45.3037L51.3006 44.7023L52.0996 45.3037ZM52.9871 44.1245L52.1894 43.5215L52.1881 43.5232L52.9871 44.1245ZM68.6176 23.447L69.0147 22.5292L68.2937 22.2172L67.8199 22.844L68.6176 23.447ZM77.4338 27.2615L78.2026 27.901L79.0567 26.8741L77.8309 26.3438L77.4338 27.2615ZM49.3551 60.2538L41.2111 58.7588L40.85 60.7259L48.9939 62.221L49.3551 60.2538ZM42.0306 59.7349L41.7246 18.8679L39.7246 18.8829L40.0306 59.7498L42.0306 59.7349ZM40.5441 19.859L50.5174 21.6899L50.8785 19.7227L40.9052 17.8918L40.5441 19.859ZM49.6986 20.6696L48.86 43.5137L50.8587 43.587L51.6973 20.743L49.6986 20.6696ZM48.8599 43.5177C48.8339 44.3144 48.7899 45.2112 48.7279 46.2089L50.724 46.3331C50.787 45.3203 50.832 44.4034 50.8588 43.583L48.8599 43.5177ZM48.7262 46.2481C48.7032 47.2526 48.67 48.0855 48.6271 48.7502L50.6229 48.879C50.6682 48.1771 50.7023 47.3143 50.7257 46.2939L48.7262 46.2481ZM50.4579 49.368C50.6209 49.1227 50.8387 48.8041 51.1128 48.4104L49.4714 47.2676C49.1932 47.6672 48.9663 47.999 48.7921 48.2612L50.4579 49.368ZM51.1128 48.4104C51.3955 48.0044 51.6812 47.5792 51.9699 47.135L50.293 46.045C50.0149 46.4728 49.7411 46.8803 49.4714 47.2676L51.1128 48.4104ZM51.9304 47.1914C52.2531 46.7626 52.5759 46.3338 52.8986 45.905L51.3006 44.7023C50.9779 45.1311 50.6552 45.5599 50.3325 45.9886L51.9304 47.1914ZM52.8986 45.905C53.2213 45.4763 53.5171 45.0832 53.7861 44.7259L52.1881 43.5232C51.9192 43.8805 51.6234 44.2735 51.3006 44.7023L52.8986 45.905ZM53.7848 44.7276L69.4154 24.05L67.8199 22.844L52.1894 43.5215L53.7848 44.7276ZM68.2205 24.3647L77.0367 28.1793L77.8309 26.3438L69.0147 22.5292L68.2205 24.3647ZM76.6649 26.6221L48.4057 60.5979L49.9433 61.8769L78.2026 27.901L76.6649 26.6221Z" fill="black" mask="url(#path-2-inside-1_366_72)"/>
</svg>
